<svg width="263" height="40" viewBox="0 0 263 40" fill="none" xmlns="http://www.w3.org/2000/svg">
  <rect width="263" height="40" rx="9" fill="#12CCE5"/>
  <path d="M21.8994 25.4962H20.1055V14.2843H22.2678L25.8396 22.8053L29.4114 14.2843H31.5737V25.4962H29.7798V17.792L26.5763 25.4962H25.1188L21.8994 17.792V25.4962Z" fill="white"/>
  <path d="M36.7714 17.2955C37.8179 17.2955 38.6561 17.5784 39.2861 18.1444C39.9161 18.6996 40.2311 19.4738 40.2311 20.4668V25.4962H38.5173V24.2629C38.2824 24.6686 37.9353 24.9997 37.4762 25.2559C37.017 25.5015 36.5205 25.6243 35.9866 25.6243C35.4634 25.6243 34.9935 25.5229 34.5771 25.32C34.1713 25.1171 33.851 24.8342 33.6161 24.4711C33.3918 24.1081 33.2797 23.6969 33.2797 23.2378C33.2797 22.4476 33.584 21.8336 34.1927 21.3958C34.812 20.958 35.7463 20.6751 36.9957 20.5469L38.5173 20.3868V20.2746C38.5173 19.7835 38.3571 19.3937 38.0368 19.1054C37.7271 18.8171 37.3053 18.6729 36.7714 18.6729C36.2802 18.6729 35.8745 18.8118 35.5541 19.0894C35.2338 19.3563 35.0469 19.7301 34.9935 20.2106L33.4239 19.9223C33.552 19.1321 33.9257 18.4968 34.5451 18.0162C35.1644 17.5357 35.9065 17.2955 36.7714 17.2955ZM36.339 24.2789C37.0117 24.2789 37.5403 24.0707 37.9247 23.6542C38.3091 23.2378 38.5066 22.6932 38.5173 22.0205V21.6841L36.9797 21.8603C36.3283 21.9351 35.8318 22.0899 35.4901 22.3248C35.1591 22.5491 34.9935 22.8374 34.9935 23.1897C34.9935 23.5101 35.1163 23.7717 35.3619 23.9746C35.6075 24.1775 35.9332 24.2789 36.339 24.2789Z" fill="white"/>
  <path d="M49.8915 25.4962H47.7612L45.0544 21.7802L44.0453 22.7252V25.4962H42.2834V14.1561H44.0453V20.4668L47.3768 17.4236H49.6352L46.2877 20.611L49.8915 25.4962Z" fill="white"/>
  <path d="M58.116 21.1556C58.116 21.4439 58.1053 21.6841 58.084 21.8763H51.9174C51.9922 22.5704 52.2378 23.1203 52.6542 23.5261C53.0813 23.9319 53.6152 24.1347 54.2559 24.1347C54.7898 24.1347 55.2329 24.0173 55.5853 23.7824C55.9377 23.5368 56.1673 23.1951 56.274 22.7573L57.9238 23.1737C57.7102 23.9532 57.2778 24.5565 56.6264 24.9837C55.9751 25.4108 55.1742 25.6243 54.2239 25.6243C53.4017 25.6243 52.6862 25.4321 52.0776 25.0477C51.4689 24.6633 51.0044 24.1561 50.6841 23.5261C50.3638 22.8854 50.2036 22.1967 50.2036 21.4599C50.2036 20.7124 50.3584 20.0237 50.6681 19.3937C50.9777 18.7637 51.4262 18.2565 52.0135 17.8721C52.6115 17.4877 53.3216 17.2955 54.1438 17.2955C54.9767 17.2955 55.6921 17.477 56.2901 17.8401C56.888 18.1924 57.3418 18.6676 57.6515 19.2656C57.9612 19.8529 58.116 20.4829 58.116 21.1556ZM56.258 20.5469C56.2046 19.981 55.9911 19.5272 55.6173 19.1855C55.2543 18.8438 54.7631 18.6729 54.1438 18.6729C53.5885 18.6729 53.124 18.8385 52.7503 19.1695C52.3766 19.4898 52.1256 19.949 51.9975 20.5469H56.258Z" fill="white"/>
  <path d="M66.7267 23.0136L68.889 17.4236H70.6829L66.4384 28.4113H64.6444L65.8617 25.2559L62.7224 17.4236H64.6124L66.7267 23.0136Z" fill="white"/>
  <path d="M75.2809 25.6243C74.48 25.6243 73.7646 25.4481 73.1346 25.0958C72.5046 24.7327 72.0081 24.2362 71.645 23.6062C71.2926 22.9762 71.1164 22.2608 71.1164 21.4599C71.1164 20.6591 71.2926 19.9436 71.645 19.3136C72.0081 18.6836 72.5046 18.1924 73.1346 17.8401C73.7646 17.477 74.48 17.2955 75.2809 17.2955C76.0817 17.2955 76.7972 17.477 77.4272 17.8401C78.0572 18.1924 78.5483 18.6836 78.9007 19.3136C79.2638 19.9436 79.4453 20.6591 79.4453 21.4599C79.4453 22.2608 79.2638 22.9762 78.9007 23.6062C78.5483 24.2362 78.0572 24.7327 77.4272 25.0958C76.7972 25.4481 76.0817 25.6243 75.2809 25.6243ZM75.2809 24.1027C75.9963 24.1027 76.5729 23.8571 77.0107 23.3659C77.4592 22.8747 77.6834 22.2394 77.6834 21.4599C77.6834 20.6804 77.4592 20.0451 77.0107 19.5539C76.5729 19.0627 75.9963 18.8171 75.2809 18.8171C74.5654 18.8171 73.9835 19.0627 73.535 19.5539C73.0972 20.0451 72.8783 20.6804 72.8783 21.4599C72.8783 22.2394 73.0972 22.8747 73.535 23.3659C73.9835 23.8571 74.5654 24.1027 75.2809 24.1027Z" fill="white"/>
  <path d="M88.3788 17.4236V25.4962H86.6329V24.1508C86.3553 24.5992 85.9869 24.957 85.5278 25.2239C85.0686 25.4909 84.5561 25.6243 83.9901 25.6243C83.1145 25.6243 82.4044 25.3627 81.8599 24.8395C81.326 24.3056 81.059 23.6062 81.059 22.7413V17.4236H82.8049V22.3408C82.8049 22.8534 82.9544 23.2698 83.2533 23.5902C83.5523 23.8998 83.9581 24.0547 84.4706 24.0547C85.1434 24.0547 85.6719 23.7824 86.0563 23.2378C86.4407 22.6932 86.6329 21.9351 86.6329 20.9634V17.4236H88.3788Z" fill="white"/>
  <path d="M95.4573 19.1214C95.169 18.9933 94.822 18.9292 94.4162 18.9292C93.7755 18.9292 93.2416 19.2282 92.8145 19.8262C92.3981 20.4135 92.1898 21.2997 92.1898 22.485V25.4962H90.444V17.4236H92.1898V18.9612C92.4034 18.4807 92.7451 18.0857 93.2149 17.776C93.6848 17.4556 94.1653 17.2955 94.6565 17.2955C95.0195 17.2955 95.3185 17.3435 95.5534 17.4396L95.4573 19.1214Z" fill="white"/>
  <path d="M104.374 25.6243C103.573 25.6243 102.858 25.4481 102.228 25.0958C101.598 24.7327 101.101 24.2362 100.738 23.6062C100.386 22.9762 100.21 22.2608 100.21 21.4599C100.21 20.6591 100.386 19.9436 100.738 19.3136C101.101 18.6836 101.598 18.1924 102.228 17.8401C102.858 17.477 103.573 17.2955 104.374 17.2955C105.175 17.2955 105.891 17.477 106.521 17.8401C107.151 18.1924 107.642 18.6836 107.994 19.3136C108.357 19.9436 108.539 20.6591 108.539 21.4599C108.539 22.2608 108.357 22.9762 107.994 23.6062C107.642 24.2362 107.151 24.7327 106.521 25.0958C105.891 25.4481 105.175 25.6243 104.374 25.6243ZM104.374 24.1027C105.09 24.1027 105.666 23.8571 106.104 23.3659C106.553 22.8747 106.777 22.2394 106.777 21.4599C106.777 20.6804 106.553 20.0451 106.104 19.5539C105.666 19.0627 105.09 18.8171 104.374 18.8171C103.659 18.8171 103.077 19.0627 102.628 19.5539C102.191 20.0451 101.972 20.6804 101.972 21.4599C101.972 22.2394 102.191 22.8747 102.628 23.3659C103.077 23.8571 103.659 24.1027 104.374 24.1027Z" fill="white"/>
  <path d="M113.346 25.4962H111.745L109.246 17.4236H111.024L112.545 23.0616L114.291 17.4236H115.909L117.639 23.0616L119.16 17.4236H120.938L118.456 25.4962H116.838L115.092 19.8742L113.346 25.4962Z" fill="white"/>
  <path d="M122.353 25.4962V17.4236H124.099V18.769C124.387 18.3206 124.755 17.9629 125.204 17.6959C125.663 17.429 126.181 17.2955 126.758 17.2955C127.623 17.2955 128.322 17.5624 128.856 18.0963C129.4 18.6196 129.673 19.3136 129.673 20.1785V25.4962H127.927V20.579C127.927 20.0664 127.777 19.6553 127.478 19.3457C127.179 19.0253 126.779 18.8651 126.277 18.8651C125.594 18.8651 125.06 19.1374 124.675 19.682C124.291 20.2266 124.099 20.9847 124.099 21.9564V25.4962H122.353Z" fill="white"/>
  <path d="M138.645 17.2955C139.692 17.2955 140.53 17.5784 141.16 18.1444C141.79 18.6996 142.105 19.4738 142.105 20.4668V25.4962H140.391V24.2629C140.156 24.6686 139.809 24.9997 139.35 25.2559C138.891 25.5015 138.394 25.6243 137.861 25.6243C137.337 25.6243 136.867 25.5229 136.451 25.32C136.045 25.1171 135.725 24.8342 135.49 24.4711C135.266 24.1081 135.154 23.6969 135.154 23.2378C135.154 22.4476 135.458 21.8336 136.067 21.3958C136.686 20.958 137.62 20.6751 138.87 20.5469L140.391 20.3868V20.2746C140.391 19.7835 140.231 19.3937 139.911 19.1054C139.601 18.8171 139.179 18.6729 138.645 18.6729C138.154 18.6729 137.748 18.8118 137.428 19.0894C137.108 19.3563 136.921 19.7301 136.867 20.2106L135.298 19.9223C135.426 19.1321 135.8 18.4968 136.419 18.0162C137.038 17.5357 137.78 17.2955 138.645 17.2955ZM138.213 24.2789C138.886 24.2789 139.414 24.0707 139.799 23.6542C140.183 23.2378 140.381 22.6932 140.391 22.0205V21.6841L138.854 21.8603C138.202 21.9351 137.706 22.0899 137.364 22.3248C137.033 22.5491 136.867 22.8374 136.867 23.1897C136.867 23.5101 136.99 23.7717 137.236 23.9746C137.481 24.1775 137.807 24.2789 138.213 24.2789Z" fill="white"/>
  <path d="M144.157 28.4113V17.4236H145.903V18.4487C146.138 18.107 146.48 17.8294 146.928 17.6158C147.377 17.4023 147.873 17.2955 148.418 17.2955C149.197 17.2955 149.87 17.4717 150.436 17.824C151.013 18.1764 151.45 18.6676 151.749 19.2976C152.059 19.9276 152.214 20.6484 152.214 21.4599C152.214 22.2714 152.054 22.9922 151.733 23.6222C151.424 24.2522 150.975 24.7434 150.388 25.0958C149.801 25.4481 149.112 25.6243 148.322 25.6243C147.831 25.6243 147.366 25.5282 146.928 25.336C146.49 25.1438 146.149 24.8875 145.903 24.5672V28.4113H144.157ZM148.13 24.1027C148.834 24.1027 149.4 23.8625 149.827 23.3819C150.254 22.8908 150.468 22.2501 150.468 21.4599C150.468 20.6591 150.254 20.0184 149.827 19.5379C149.4 19.0574 148.834 18.8171 148.13 18.8171C147.425 18.8171 146.859 19.0574 146.432 19.5379C146.005 20.0184 145.791 20.6591 145.791 21.4599C145.791 22.2501 146.005 22.8908 146.432 23.3819C146.859 23.8625 147.425 24.1027 148.13 24.1027Z" fill="white"/>
  <path d="M153.824 28.4113V17.4236H155.57V18.4487C155.805 18.107 156.146 17.8294 156.595 17.6158C157.043 17.4023 157.54 17.2955 158.084 17.2955C158.864 17.2955 159.537 17.4717 160.103 17.824C160.679 18.1764 161.117 18.6676 161.416 19.2976C161.726 19.9276 161.88 20.6484 161.88 21.4599C161.88 22.2714 161.72 22.9922 161.4 23.6222C161.09 24.2522 160.642 24.7434 160.054 25.0958C159.467 25.4481 158.778 25.6243 157.988 25.6243C157.497 25.6243 157.033 25.5282 156.595 25.336C156.157 25.1438 155.815 24.8875 155.57 24.5672V28.4113H153.824ZM157.796 24.1027C158.501 24.1027 159.067 23.8625 159.494 23.3819C159.921 22.8908 160.135 22.2501 160.135 21.4599C160.135 20.6591 159.921 20.0184 159.494 19.5379C159.067 19.0574 158.501 18.8171 157.796 18.8171C157.091 18.8171 156.525 19.0574 156.098 19.5379C155.671 20.0184 155.458 20.6591 155.458 21.4599C155.458 22.2501 155.671 22.8908 156.098 23.3819C156.525 23.8625 157.091 24.1027 157.796 24.1027Z" fill="white"/>
  <path d="M170.798 25.4962H169.196L166.698 17.4236H168.475L169.997 23.0616L171.743 17.4236H173.361L175.09 23.0616L176.612 17.4236H178.39L175.907 25.4962H174.29L172.544 19.8742L170.798 25.4962Z" fill="white"/>
  <path d="M181.55 25.4962H179.805V17.4236H181.55V25.4962ZM180.67 16.0782C180.349 16.0782 180.082 15.9714 179.869 15.7578C179.655 15.5336 179.548 15.2667 179.548 14.957C179.548 14.6367 179.655 14.3697 179.869 14.1561C180.082 13.9319 180.349 13.8198 180.67 13.8198C181.001 13.8198 181.273 13.9319 181.486 14.1561C181.711 14.3697 181.823 14.6367 181.823 14.957C181.823 15.2667 181.711 15.5336 181.486 15.7578C181.273 15.9714 181.001 16.0782 180.67 16.0782Z" fill="white"/>
  <path d="M188.202 25.4321C187.818 25.5603 187.391 25.6243 186.921 25.6243C186.12 25.6243 185.474 25.4001 184.983 24.9516C184.502 24.5031 184.262 23.8358 184.262 22.9495V18.9132H182.852V17.4236H184.262V15.0211H186.008V17.4236H188.09V18.9132H186.008V22.8534C186.008 23.2485 186.104 23.5528 186.296 23.7664C186.499 23.9692 186.771 24.0707 187.113 24.0707C187.497 24.0707 187.823 24.0066 188.09 23.8785L188.202 25.4321Z" fill="white"/>
  <path d="M189.956 25.4962V14.1561H191.702V18.8171C191.98 18.3152 192.343 17.9362 192.791 17.6799C193.25 17.4236 193.768 17.2955 194.345 17.2955C195.263 17.2955 195.994 17.5624 196.539 18.0963C197.094 18.6196 197.372 19.319 197.372 20.1946V25.4962H195.626V20.595C195.626 20.0611 195.466 19.6393 195.146 19.3296C194.836 19.02 194.409 18.8651 193.864 18.8651C193.191 18.8651 192.663 19.1428 192.279 19.698C191.894 20.2533 191.702 21.0221 191.702 22.0045V25.4962H189.956Z" fill="white"/>
  <path d="M222.378 13.8733C222.072 14.12 221.867 14.4649 221.798 14.8462C221.679 15.6432 222.24 16.2581 223.058 16.2581C223.891 16.2581 224.589 15.7099 224.709 14.9454C224.844 14.1313 224.283 13.5002 223.466 13.5002C223.069 13.4943 222.684 13.6266 222.378 13.8733Z" fill="white"/>
  <path d="M215.315 20.5558C215.335 20.1834 215.329 19.8102 215.298 19.4386H209.062L208.006 21.5591H212.649C212.296 22.7834 210.971 23.5587 209.383 23.5587C206.981 23.5587 205.392 21.9902 205.392 19.7665C205.392 17.594 207.017 16.0084 209.188 16.0084C210.831 16.0084 211.802 16.8342 212.298 17.801H214.998C214.344 15.3533 212.243 13.6979 209.188 13.6979C205.551 13.6979 202.885 16.2837 202.885 19.7665C202.885 23.2827 205.516 25.8344 209.383 25.8282C212.933 25.8282 215.174 23.3657 215.315 20.5558Z" fill="white"/>
  <path d="M217.646 13.8879L215.739 25.6444H218.176L220.082 13.8879H217.646Z" fill="white"/>
  <path d="M220.31 25.6444L221.616 17.5421H224.053L222.747 25.6444H220.31Z" fill="white"/>
  <path fill-rule="evenodd" clip-rule="evenodd" d="M234.928 13.8879H232.492L231.749 18.4213C231.308 17.784 230.514 17.3529 229.367 17.3529C227.424 17.3529 225.359 18.6283 224.935 21.249C224.422 24.4202 226.541 25.8344 228.183 25.8344C229.278 25.8344 230.179 25.4025 230.814 24.6272L231.34 25.6444H234.045L233.437 23.482L234.928 13.8879ZM229.596 19.4215C230.532 19.4215 231.538 20.2488 231.308 21.6972C231.061 23.2486 229.861 23.7658 229.012 23.7658C227.901 23.7658 227.089 22.8346 227.3 21.5072C227.495 20.2488 228.43 19.4215 229.596 19.4215Z" fill="white"/>
  <path fill-rule="evenodd" clip-rule="evenodd" d="M243.687 22.3694H237.453C237.719 23.4037 238.46 23.92 239.484 23.92C240.42 23.92 240.913 23.696 241.25 23.1959H243.457C242.927 25.0745 241.179 25.832 239.537 25.832C236.906 25.832 235.194 24.0216 235.194 21.5909C235.194 19.178 236.959 17.3506 239.466 17.3506C241.974 17.3506 243.705 19.1804 243.705 21.5932C243.705 21.921 243.705 22.0415 243.687 22.3694ZM237.436 20.783H241.481C241.322 19.9038 240.474 19.2835 239.468 19.2835C238.407 19.2835 237.669 19.8867 237.436 20.783Z" fill="white"/>
  </svg>
  